<svg width="30" height="30" viewBox="10 8 25 25" fill="none" xmlns="http://www.w3.org/2000/svg">
<g filter="url(#filter0_d_233_1153)">
<path d="M31.6181 23.1837L31.6182 23.1837C32.1805 23.1871 32.6799 22.964 33.1092 22.5681C33.5266 22.1834 33.7731 21.7028 33.8927 21.1402C33.8927 20.9146 33.8926 20.6898 33.8911 20.4637C33.8823 20.4309 33.8736 20.3977 33.8651 20.3653L33.865 20.3648L33.8638 20.3603L33.8639 20.3603C33.6067 19.2967 32.6611 18.7419 31.6026 19.0356L31.6181 23.1837ZM31.6181 23.1837C30.6878 23.1788 30.0018 22.5849 29.8683 21.6506L29.6208 21.6859M31.6181 23.1837L31.6167 23.4337C30.5622 23.4281 29.7718 22.7425 29.6208 21.6859M29.6208 21.6859L29.8683 21.6505M29.6208 21.6859L29.8683 21.6505M29.8683 21.6505C29.7055 20.5071 30.4807 19.3477 31.6025 19.0357L29.8683 21.6505Z" stroke="white" stroke-width="0.5"/>
<path d="M24.9626 19.0898C26.3915 19.1181 27.5606 19.6893 28.3757 20.8676C29.0798 21.8838 29.7387 22.934 30.3788 23.9916M24.9626 19.0898H24.9625C24.8402 19.0898 24.7179 19.0898 24.5974 19.0879M24.9626 19.0898V19.3398H24.9615C24.9611 19.3398 24.9606 19.3398 24.9601 19.3398M24.9626 19.0898L24.9577 19.3397C24.9585 19.3397 24.9593 19.3398 24.9601 19.3398M24.5974 19.0879C24.5697 19.0885 24.542 19.0911 24.5146 19.0954C23.1779 19.2764 22.1331 19.9231 21.4008 21.0618M24.5974 19.0879L24.6032 19.3378C24.6018 19.3379 24.6004 19.3379 24.599 19.3379M24.5974 19.0879L24.5935 19.3379C24.5953 19.3379 24.5972 19.3379 24.599 19.3379M21.4008 21.0618C20.8046 21.9913 20.2091 22.9208 19.6142 23.8502M21.4008 21.0618L21.6112 21.1968C21.6112 21.1968 21.6112 21.1969 21.6112 21.1969M21.4008 21.0618L21.6111 21.1971C21.6111 21.197 21.6111 21.1969 21.6112 21.1969M19.6142 23.8502C19.2584 24.4045 19.1078 25.0022 19.1812 25.6639C19.3356 27.076 20.6854 28.1563 22.0936 27.981M19.6142 23.8502L19.6142 23.8502L19.6142 23.8502ZM22.0936 27.981C22.3804 27.9421 22.6608 27.8654 22.9276 27.7529C23.8387 27.3796 24.78 27.2552 25.7571 27.4041M22.0936 27.981L22.06 27.7333C22.0605 27.7332 22.0609 27.7331 22.0614 27.7331M22.0936 27.981L22.0627 27.7329C22.0622 27.733 22.0618 27.733 22.0614 27.7331M25.7571 27.4041C26.2447 27.4776 26.704 27.6435 27.1615 27.8208C27.6679 28.0187 28.1894 28.0489 28.7184 27.9207C30.4541 27.5021 31.305 25.5225 30.3788 23.9916M25.7571 27.4041L25.7944 27.1569C25.7944 27.1569 25.7945 27.1569 25.7945 27.1569M25.7571 27.4041L25.7947 27.157C25.7947 27.1569 25.7946 27.1569 25.7945 27.1569M30.3788 23.9916L30.1649 24.1211M30.3788 23.9916L30.1649 24.1211C30.1649 24.1211 30.1649 24.1211 30.1649 24.1211M30.1649 24.1211C29.5261 23.0654 28.8702 22.0202 28.1703 21.01L28.1701 21.0099C27.4051 19.904 26.3148 19.3672 24.9601 19.3398M30.1649 24.1211C31.0016 25.5039 30.2349 27.2978 28.6598 27.6776L28.6595 27.6777C28.1786 27.7942 27.7096 27.7666 27.2525 27.5879L27.2518 27.5876C26.7935 27.4101 26.3117 27.2349 25.7945 27.1569M24.9601 19.3398C24.8407 19.3398 24.7191 19.3398 24.599 19.3379M24.599 19.3379C24.5839 19.3385 24.5689 19.3399 24.554 19.3423L24.5481 19.3432L24.5481 19.3432C23.2819 19.5146 22.3027 20.1216 21.6112 21.1969M21.6112 21.1969C21.0151 22.1263 20.4196 23.0556 19.8248 23.985L19.8246 23.9853C19.4983 24.4936 19.3629 25.0341 19.4297 25.6364L19.4297 25.6368C19.5691 26.9116 20.794 27.8901 22.0614 27.7331M22.0614 27.7331C22.3258 27.6971 22.5844 27.6263 22.8304 27.5226L22.8328 27.5215L22.8328 27.5215C23.7838 27.1319 24.7707 27.0009 25.7945 27.1569" stroke="white" stroke-width="0.5"/>
<path d="M25.9822 15.9735C25.9762 15.2699 25.8103 14.7213 25.4704 14.2271C24.6384 13.0182 23.0112 12.9199 22.0906 13.9951L25.9822 15.9735ZM25.9822 15.9735C25.9621 16.6586 25.7253 17.333 25.1779 17.8828C24.2799 18.7822 22.8781 18.7184 22.0646 17.7392C21.1629 16.6533 21.1736 15.0667 22.0906 13.9951L25.9822 15.9735Z" stroke="white" stroke-width="0.5"/>
<path d="M27.8126 14.7125L27.8126 14.7125L27.8126 14.7125ZM27.9489 14.9221L27.9489 14.9221C28.9906 14.2444 30.2924 14.6469 30.7772 15.7917C31.3046 17.0377 30.6969 18.5972 29.5031 19.1373C28.4596 19.6094 27.3249 19.1286 26.9107 18.0473C26.8547 17.9001 26.8121 17.7482 26.7834 17.5934L26.7835 17.5934L26.7828 17.5901C26.7544 17.4479 26.7409 17.3033 26.7423 17.1583C26.7892 16.2036 27.149 15.4423 27.9489 14.9221Z" stroke="white" stroke-width="0.5"/>
<path d="M17.25 18.5492C17.2554 17.9018 17.4572 17.363 17.9365 16.9578C18.5268 16.4607 19.314 16.4187 20.034 16.8542L20.0341 16.8543C21.0675 17.4786 21.4788 18.9113 20.9356 19.9573L20.9355 19.9575C20.4602 20.8753 19.372 21.1907 18.4743 20.6695L18.4734 20.669C18.1008 20.4547 17.7914 20.1457 17.5766 19.7733C17.3619 19.4012 17.2492 18.9789 17.25 18.5492Z" stroke="white" stroke-width="0.5"/>
</g>
<defs>
<filter id="filter0_d_233_1153" x="0" y="0" width="51.1426" height="48.9995" filterUnits="userSpaceOnUse" color-interpolation-filters="sRGB">
<feFlood flood-opacity="0" result="BackgroundImageFix"/>
<feColorMatrix in="SourceAlpha" type="matrix" values="0 0 0 0 0 0 0 0 0 0 0 0 0 0 0 0 0 0 127 0" result="hardAlpha"/>
<feOffset dy="4"/>
<feGaussianBlur stdDeviation="8.5"/>
<feComposite in2="hardAlpha" operator="out"/>
<feColorMatrix type="matrix" values="0 0 0 0 1 0 0 0 0 1 0 0 0 0 1 0 0 0 0.25 0"/>
<feBlend mode="normal" in2="BackgroundImageFix" result="effect1_dropShadow_233_1153"/>
<feBlend mode="normal" in="SourceGraphic" in2="effect1_dropShadow_233_1153" result="shape"/>
</filter>
</defs>
</svg>
