<svg width="30" height="30" viewBox="10 8 25 25" fill="none" xmlns="http://www.w3.org/2000/svg">
<g filter="url(#filter0_d_233_1231)">
<path d="M34.1422 21.1661C34.0158 21.7819 33.7461 22.3206 33.2782 22.7519C32.8104 23.1832 32.252 23.4375 31.6162 23.4337C30.5617 23.4281 29.7713 22.7425 29.6204 21.6859C29.4393 20.4146 30.2957 19.1395 31.5351 18.7948C32.7293 18.4633 33.8159 19.0999 34.1064 20.3016C34.1177 20.3449 34.129 20.3882 34.1403 20.4296C34.1422 20.6764 34.1422 20.9212 34.1422 21.1661Z" fill="white"/>
<path d="M24.9621 19.0898C26.391 19.1181 27.5601 19.6893 28.3753 20.8676C29.0793 21.8838 29.7382 22.934 30.3783 23.9916C31.3046 25.5225 30.4536 27.5021 28.7179 27.9207C28.1889 28.0489 27.6674 28.0187 27.161 27.8208C26.7035 27.6435 26.2442 27.4776 25.7566 27.4041C24.7795 27.2552 23.8382 27.3796 22.9271 27.7529C22.6603 27.8654 22.3799 27.9421 22.0931 27.981C20.6849 28.1563 19.3351 27.076 19.1807 25.6639C19.1073 25.0022 19.2579 24.4045 19.6137 23.8502C20.2086 22.9208 20.8041 21.9913 21.4003 21.0618C22.1326 19.9231 23.1774 19.2764 24.5141 19.0954C24.5415 19.0911 24.5692 19.0885 24.5969 19.0879C24.7174 19.0898 24.8398 19.0898 24.9621 19.0898Z" fill="white"/>
<path d="M26.2318 15.9761C26.211 16.7177 25.9538 17.4574 25.3545 18.0593C24.3524 19.0631 22.7794 18.9914 21.8718 17.8989C20.8925 16.7196 20.9038 14.9968 21.9002 13.8326C22.9325 12.6268 24.7551 12.7476 25.6759 14.0854C26.0484 14.627 26.2261 15.227 26.2318 15.9761Z" fill="white"/>
<path d="M26.4924 17.1509C26.5414 16.1296 26.9318 15.2854 27.8126 14.7125C28.9857 13.9493 30.4624 14.4072 31.0075 15.6943C31.5865 17.0623 30.9264 18.7677 29.6062 19.3651C28.4274 19.8984 27.1411 19.3481 26.6772 18.1365C26.6158 17.9752 26.5691 17.8087 26.5376 17.639C26.5056 17.4783 26.4904 17.3147 26.4924 17.1509Z" fill="white"/>
<path d="M16.9995 18.5479C17.0052 17.8441 17.2278 17.229 17.7748 16.7667C18.4558 16.1931 19.3612 16.1554 20.1629 16.6403C21.306 17.3309 21.7625 18.9064 21.157 20.0725C20.6156 21.1178 19.3688 21.4782 18.3483 20.8857C17.9375 20.6494 17.5964 20.3088 17.3596 19.8983C17.1227 19.4877 16.9985 19.0219 16.9995 18.5479Z" fill="white"/>
</g>
<defs>
<filter id="filter0_d_233_1231" x="-0.000488281" y="0" width="51.1426" height="48.9995" filterUnits="userSpaceOnUse" color-interpolation-filters="sRGB">
<feFlood flood-opacity="0" result="BackgroundImageFix"/>
<feColorMatrix in="SourceAlpha" type="matrix" values="0 0 0 0 0 0 0 0 0 0 0 0 0 0 0 0 0 0 127 0" result="hardAlpha"/>
<feOffset dy="4"/>
<feGaussianBlur stdDeviation="8.5"/>
<feComposite in2="hardAlpha" operator="out"/>
<feColorMatrix type="matrix" values="0 0 0 0 1 0 0 0 0 1 0 0 0 0 1 0 0 0 0.25 0"/>
<feBlend mode="normal" in2="BackgroundImageFix" result="effect1_dropShadow_233_1231"/>
<feBlend mode="normal" in="SourceGraphic" in2="effect1_dropShadow_233_1231" result="shape"/>
</filter>
</defs>
</svg>
